<?xml version="1.0" standalone="no"?>
<!DOCTYPE svg PUBLIC "-//W3C//DTD SVG 20010904//EN"
 "http://www.w3.org/TR/2001/REC-SVG-20010904/DTD/svg10.dtd">
<svg version="1.0" xmlns="http://www.w3.org/2000/svg"
 width="172.000000pt" height="111.000000pt" viewBox="0 0 172.000000 111.000000"
 preserveAspectRatio="xMidYMid meet">

<g transform="translate(0.000000,111.000000) scale(0.100000,-0.100000)"
fill="#000000" stroke="none">
<path d="M159 513 c-32 -215 -42 -310 -35 -315 19 -13 115 -9 182 8 36 9 61
20 55 24 -7 3 3 7 21 7 18 0 71 12 117 27 46 14 100 26 121 26 54 0 120 -26
159 -63 l35 -32 -30 36 c-74 90 -158 109 -313 69 -114 -29 -200 -28 -262 3
-26 13 -46 21 -44 18 2 -4 -2 -14 -9 -23 -11 -15 -13 -13 -13 16 0 21 5 32 12
30 14 -6 58 336 49 386 -4 28 -3 32 6 20 9 -12 11 -7 8 22 -2 21 1 40 7 42 5
2 3 5 -5 5 -13 1 -24 -54 -61 -306z m38 145 c-3 -7 -5 -2 -5 12 0 14 2 19 5
13 2 -7 2 -19 0 -25z m-10 -70 c-3 -7 -5 -2 -5 12 0 14 2 19 5 13 2 -7 2 -19
0 -25z m-10 -70 c-3 -7 -5 -2 -5 12 0 14 2 19 5 13 2 -7 2 -19 0 -25z m-10
-75 c-3 -10 -5 -4 -5 12 0 17 2 24 5 18 2 -7 2 -21 0 -30z m-10 -70 c-3 -10
-5 -4 -5 12 0 17 2 24 5 18 2 -7 2 -21 0 -30z m31 -94 c-3 -8 -7 -3 -11 10 -4
17 -3 21 5 13 5 -5 8 -16 6 -23z m380 26 c-11 -11 -68 -23 -68 -15 0 5 10 11
23 13 35 7 51 7 45 2z m111 -4 c8 -5 -5 -7 -35 -4 -27 3 -51 7 -53 9 -9 8 75
3 88 -5z m-457 -23 c3 -7 21 -12 44 -11 34 1 36 0 14 -8 -23 -8 -22 -8 8 -5
18 1 35 -1 38 -6 8 -12 -54 -10 -79 4 -19 10 -20 9 -10 -4 10 -12 10 -15 -2
-15 -8 0 -15 8 -15 17 0 9 -5 21 -12 28 -8 8 -9 12 -1 12 6 0 13 -5 15 -12z
m263 2 c3 -5 -1 -10 -10 -10 -9 0 -13 5 -10 10 3 6 8 10 10 10 2 0 7 -4 10
-10z m-300 -21 c19 -9 18 -9 -3 -5 -12 2 -20 0 -17 -4 3 -5 -1 -11 -7 -14 -7
-3 -1 -3 13 0 15 3 30 1 33 -5 4 -6 18 -11 32 -11 13 0 24 -4 24 -10 0 -14
-117 -13 -126 2 -5 8 -1 9 12 4 14 -5 16 -4 8 4 -12 12 -8 51 5 49 3 0 15 -5
26 -10z m188 4 c-7 -2 -19 -2 -25 0 -7 3 -2 5 12 5 14 0 19 -2 13 -5z m-88
-43 c3 -5 1 -10 -4 -10 -6 0 -11 5 -11 10 0 6 2 10 4 10 3 0 8 -4 11 -10z m52
4 c-3 -3 -12 -4 -19 -1 -8 3 -5 6 6 6 11 1 17 -2 13 -5z"/>
<path d="M1493 788 c4 -18 9 -62 13 -96 5 -44 10 -60 16 -50 6 9 7 3 3 -17 -7
-31 15 -236 25 -230 3 2 4 -14 2 -35 -4 -35 -8 -40 -54 -60 -55 -24 -150 -28
-216 -11 -22 6 -48 8 -58 4 -11 -4 -15 -3 -10 5 9 14 -69 26 -139 20 -59 -5
-121 -40 -151 -87 -17 -25 -16 -25 18 5 46 41 114 59 181 49 28 -4 64 -8 79
-9 14 0 24 -4 22 -7 -4 -7 176 -69 201 -69 12 0 9 7 -12 26 l-28 26 28 -7 c23
-6 26 -5 21 11 -5 15 -4 16 4 4 6 -8 7 -19 2 -25 -5 -6 -3 -17 4 -28 10 -12
27 -17 67 -17 83 0 83 1 70 121 -15 126 -59 455 -66 487 -8 36 -28 27 -22 -10z
m24 -80 c-3 -8 -6 -5 -6 6 -1 11 2 17 5 13 3 -3 4 -12 1 -19z m20 -150 c-3 -7
-5 -2 -5 12 0 14 2 19 5 13 2 -7 2 -19 0 -25z m10 -75 c-3 -10 -5 -4 -5 12 0
17 2 24 5 18 2 -7 2 -21 0 -30z m20 -145 c-3 -8 -6 -5 -6 6 -1 11 2 17 5 13 3
-3 4 -12 1 -19z m-493 -38 c-29 -4 -57 -11 -63 -14 -6 -4 -11 -5 -11 -1 0 11
45 24 85 23 38 0 37 -1 -11 -8z m86 0 c0 -5 -4 -10 -9 -10 -6 0 -13 5 -16 10
-3 6 1 10 9 10 9 0 16 -4 16 -10z m370 -20 c-6 -11 -16 -20 -23 -20 -7 0 -6 4
3 10 13 9 13 10 0 11 -10 0 -8 3 5 9 11 5 21 9 23 9 1 1 -2 -8 -8 -19z m30
-12 c0 -16 -3 -19 -11 -11 -6 6 -8 16 -5 22 11 17 16 13 16 -11z m-230 -7 c0
-6 -4 -12 -8 -15 -5 -3 -9 1 -9 9 0 8 4 15 9 15 4 0 8 -4 8 -9z m30 -16 c0 -8
-8 -15 -17 -14 -11 0 -13 3 -5 6 6 2 10 9 6 14 -3 5 0 9 5 9 6 0 11 -7 11 -15z
m210 -35 c0 -5 -21 -9 -47 -9 l-48 2 40 7 c22 4 43 8 48 9 4 0 7 -3 7 -9z"/>
<path d="M135 718 c-26 -111 -135 -609 -135 -617 0 -6 139 -10 365 -10 l366 0
25 -31 c14 -16 30 -27 35 -24 5 3 8 0 7 -7 -4 -17 54 -33 89 -25 15 4 44 25
64 47 l36 39 362 2 c250 1 361 5 358 12 -2 6 -32 152 -68 323 -45 223 -67 313
-77 313 -8 0 -11 -7 -8 -17 14 -52 87 -565 82 -579 -5 -14 -21 -16 -109 -12
-90 4 -120 11 -253 56 -168 58 -222 64 -291 32 -42 -19 -92 -63 -111 -97 -9
-15 -16 -11 -56 34 -90 100 -167 106 -393 27 -120 -41 -151 -48 -233 -51 -52
-2 -100 0 -107 4 -9 6 -1 77 32 288 25 154 45 288 45 298 0 25 -19 21 -25 -5z"/>
<path d="M1461 664 c0 -11 3 -14 6 -6 3 7 2 16 -1 19 -3 4 -6 -2 -5 -13z"/>
<path d="M1481 474 c0 -11 3 -14 6 -6 3 7 2 16 -1 19 -3 4 -6 -2 -5 -13z"/>
<path d="M558 403 c7 -3 16 -2 19 1 4 3 -2 6 -13 5 -11 0 -14 -3 -6 -6z"/>
<path d="M1113 363 c9 -2 23 -2 30 0 6 3 -1 5 -18 5 -16 0 -22 -2 -12 -5z"/>
<path d="M949 323 c-13 -16 -12 -17 4 -4 9 7 17 15 17 17 0 8 -8 3 -21 -13z"/>
<path d="M936 288 c3 -5 10 -6 15 -3 13 9 11 12 -6 12 -8 0 -12 -4 -9 -9z"/>
<path d="M909 253 c-13 -16 -12 -17 4 -4 16 13 21 21 13 21 -2 0 -10 -8 -17
-17z"/>
<path d="M800 251 c0 -6 4 -13 10 -16 6 -3 7 1 4 9 -7 18 -14 21 -14 7z"/>
</g>
</svg>
